<svg height="80.370819mm" viewBox="0 0 310.64813 80.370819" width="310.64813mm" xmlns="http://www.w3.org/2000/svg" xmlns:xlink="http://www.w3.org/1999/xlink"><marker id="a" orient="auto" overflow="visible" refX="0" refY="0"><path d="m0 0 5-5-17.5 5 17.5 5z" fill-rule="evenodd" stroke="#000" stroke-width="1pt" transform="matrix(-.8 0 0 -.8 -10 0)"/></marker><marker id="b" orient="auto" overflow="visible" refX="0" refY="0"><path d="m0 0 5-5-17.5 5 17.5 5z" fill-rule="evenodd" stroke="#000" stroke-width="1pt" transform="matrix(-.8 0 0 -.8 -10 0)"/></marker><marker id="c" orient="auto" overflow="visible" refX="0" refY="0"><path d="m0 0 5-5-17.5 5 17.5 5z" fill-rule="evenodd" stroke="#000" stroke-width="1pt" transform="matrix(-.8 0 0 -.8 -10 0)"/></marker><g transform="translate(48.161445 -85.272242)"><path d="m-10.878296 104.26047 14.5701783 7.23512-14.5701783 7.23512z" fill="none" stroke="#000" stroke-width=".5"/><path d="m3.6918813 111.49559h5.788694" fill="none" stroke="#000" stroke-width=".5"/><g transform="translate(-57.069534 29.687982)"><rect fill="none" height="22.383821" rx=".000007" stroke="#000" stroke-linecap="square" stroke-linejoin="round" stroke-width=".5" width="17.105249" x="70.291878" y="98.418739"/><text style="font-style:italic;font-weight:bold;font-size:10.583333;font-family:sans-serif;letter-spacing:0;word-spacing:0;stroke-width:.264583" x="71.8955" y="106.69871"><tspan font-family="sans-serif" font-size="5.291667" font-style="normal" font-weight="normal" stroke-width=".264583" x="71.8955" y="106.69871">D</tspan></text><text style="font-style:italic;font-weight:bold;font-size:10.583333;font-family:sans-serif;letter-spacing:0;word-spacing:0;stroke-width:.264583" x="81.639618" y="106.63485"><tspan font-family="sans-serif" font-size="5.291667" font-style="normal" font-weight="normal" stroke-width=".264583" x="81.639618" y="106.63485">Q</tspan></text><g transform="translate(0 -.529167)"><text style="font-style:italic;font-weight:bold;font-size:10.583333;font-family:sans-serif;letter-spacing:0;word-spacing:0;stroke-width:.264583" x="75.567924" y="117.50632"><tspan font-family="sans-serif" font-size="5.291667" font-style="normal" font-weight="normal" stroke-width=".264583" x="75.567924" y="117.50632">CLK</tspan></text><path d="m70.291878 117.38416 4.009051-1.80407-4.009051-1.80407" fill="none" stroke="#000" stroke-width=".5"/></g></g><path d="m14.333827 104.26047 14.570177 7.23512-14.570177 7.23512z" fill="none" stroke="#000" stroke-width=".5"/><path d="m28.904004 111.49559h5.7887" fill="none" stroke="#000" stroke-width=".5"/><path d="m13.222344 144.73891h-3.7417657v12.13329" fill="none" stroke="#000" stroke-width=".5"/><path d="m13.222344 134.45787h-3.7417687v-22.96228h4.8532517" fill="none" stroke="#000" stroke-width=".5"/><g transform="translate(-31.857407 29.68798)"><rect fill="none" height="22.383821" rx=".000007" stroke="#000" stroke-linecap="square" stroke-linejoin="round" stroke-width=".5" width="17.105249" x="70.291878" y="98.418739"/><text style="font-style:italic;font-weight:bold;font-size:10.583333;font-family:sans-serif;letter-spacing:0;word-spacing:0;stroke-width:.264583" x="71.8955" y="106.69871"><tspan font-family="sans-serif" font-size="5.291667" font-style="normal" font-weight="normal" stroke-width=".264583" x="71.8955" y="106.69871">D</tspan></text><text style="font-style:italic;font-weight:bold;font-size:10.583333;font-family:sans-serif;letter-spacing:0;word-spacing:0;stroke-width:.264583" x="81.639618" y="106.63485"><tspan font-family="sans-serif" font-size="5.291667" font-style="normal" font-weight="normal" stroke-width=".264583" x="81.639618" y="106.63485">Q</tspan></text><g transform="translate(0 -.529167)"><text style="font-style:italic;font-weight:bold;font-size:10.583333;font-family:sans-serif;letter-spacing:0;word-spacing:0;stroke-width:.264583" x="75.567924" y="117.50632"><tspan font-family="sans-serif" font-size="5.291667" font-style="normal" font-weight="normal" stroke-width=".264583" x="75.567924" y="117.50632">CLK</tspan></text><path d="m70.291878 117.38416 4.009051-1.80407-4.009051-1.80407" fill="none" stroke="#000" stroke-width=".5"/></g></g><path d="m39.545955 104.26047 14.57018 7.23512-14.57018 7.23512z" fill="none" stroke="#000" stroke-width=".5"/><path d="m54.116135 111.49559h5.78869" fill="none" stroke="#000" stroke-width=".5"/><path d="m38.434475 144.73891h-3.741771v12.13329" fill="none" stroke="#000" stroke-width=".5"/><path d="m38.434475 134.45787h-3.741771v-22.96228h4.853251" fill="none" stroke="#000" stroke-width=".5"/><g transform="translate(-6.64529 29.687978)"><rect fill="none" height="22.383821" rx=".000007" stroke="#000" stroke-linecap="square" stroke-linejoin="round" stroke-width=".5" width="17.105249" x="70.291878" y="98.418739"/><text style="font-style:italic;font-weight:bold;font-size:10.583333;font-family:sans-serif;letter-spacing:0;word-spacing:0;stroke-width:.264583" x="71.8955" y="106.69871"><tspan font-family="sans-serif" font-size="5.291667" font-style="normal" font-weight="normal" stroke-width=".264583" x="71.8955" y="106.69871">D</tspan></text><text style="font-style:italic;font-weight:bold;font-size:10.583333;font-family:sans-serif;letter-spacing:0;word-spacing:0;stroke-width:.264583" x="81.639618" y="106.63485"><tspan font-family="sans-serif" font-size="5.291667" font-style="normal" font-weight="normal" stroke-width=".264583" x="81.639618" y="106.63485">Q</tspan></text><g transform="translate(0 -.529167)"><text style="font-style:italic;font-weight:bold;font-size:10.583333;font-family:sans-serif;letter-spacing:0;word-spacing:0;stroke-width:.264583" x="75.567924" y="117.50632"><tspan font-family="sans-serif" font-size="5.291667" font-style="normal" font-weight="normal" stroke-width=".264583" x="75.567924" y="117.50632">CLK</tspan></text><path d="m70.291878 117.38416 4.009051-1.80407-4.009051-1.80407" fill="none" stroke="#000" stroke-width=".5"/></g></g><path d="m64.758075 104.26046 14.57017 7.23513-14.57017 7.23512z" fill="none" stroke="#000" stroke-width=".5"/><path d="m79.328245 111.49558h5.788701" fill="none" stroke="#000" stroke-width=".5"/><path d="m63.646585 144.73891h-3.74176v12.13329" fill="none" stroke="#000" stroke-width=".5"/><path d="m63.646585 134.45786h-3.74176v-22.96227h4.85325" fill="none" stroke="#000" stroke-width=".5"/><g transform="translate(43.778955 29.687974)"><rect fill="none" height="22.383821" rx=".000007" stroke="#000" stroke-linecap="square" stroke-linejoin="round" stroke-width=".5" width="17.105249" x="70.291878" y="98.418739"/><text style="font-style:italic;font-weight:bold;font-size:10.583333;font-family:sans-serif;letter-spacing:0;word-spacing:0;stroke-width:.264583" x="71.8955" y="106.69871"><tspan font-family="sans-serif" font-size="5.291667" font-style="normal" font-weight="normal" stroke-width=".264583" x="71.8955" y="106.69871">D</tspan></text><text style="font-style:italic;font-weight:bold;font-size:10.583333;font-family:sans-serif;letter-spacing:0;word-spacing:0;stroke-width:.264583" x="81.639618" y="106.63485"><tspan font-family="sans-serif" font-size="5.291667" font-style="normal" font-weight="normal" stroke-width=".264583" x="81.639618" y="106.63485">Q</tspan></text><g transform="translate(0 -.529167)"><text style="font-style:italic;font-weight:bold;font-size:10.583333;font-family:sans-serif;letter-spacing:0;word-spacing:0;stroke-width:.264583" x="75.567924" y="117.50632"><tspan font-family="sans-serif" font-size="5.291667" font-style="normal" font-weight="normal" stroke-width=".264583" x="75.567924" y="117.50632">CLK</tspan></text><path d="m70.291878 117.38416 4.009051-1.80407-4.009051-1.80407" fill="none" stroke="#000" stroke-width=".5"/></g></g><path d="m115.18232 104.26046 14.57018 7.23512-14.57018 7.23512z" fill="none" stroke="#000" stroke-width=".5"/><path d="m129.7525 111.49558h5.78869" fill="none" stroke="#000" stroke-width=".5"/><path d="m114.07084 134.45786h-3.74177v-22.96228h4.85325" fill="none" stroke="#000" stroke-width=".5"/><g transform="translate(68.991075 29.687972)"><rect fill="none" height="22.383821" rx=".000007" stroke="#000" stroke-linecap="square" stroke-linejoin="round" stroke-width=".5" width="17.105249" x="70.291878" y="98.418739"/><text style="font-style:italic;font-weight:bold;font-size:10.583333;font-family:sans-serif;letter-spacing:0;word-spacing:0;stroke-width:.264583" x="71.8955" y="106.69871"><tspan font-family="sans-serif" font-size="5.291667" font-style="normal" font-weight="normal" stroke-width=".264583" x="71.8955" y="106.69871">D</tspan></text><text style="font-style:italic;font-weight:bold;font-size:10.583333;font-family:sans-serif;letter-spacing:0;word-spacing:0;stroke-width:.264583" x="81.639618" y="106.63485"><tspan font-family="sans-serif" font-size="5.291667" font-style="normal" font-weight="normal" stroke-width=".264583" x="81.639618" y="106.63485">Q</tspan></text><g transform="translate(0 -.529167)"><text style="font-style:italic;font-weight:bold;font-size:10.583333;font-family:sans-serif;letter-spacing:0;word-spacing:0;stroke-width:.264583" x="75.567924" y="117.50632"><tspan font-family="sans-serif" font-size="5.291667" font-style="normal" font-weight="normal" stroke-width=".264583" x="75.567924" y="117.50632">CLK</tspan></text><path d="m70.291878 117.38416 4.009051-1.80407-4.009051-1.80407" fill="none" stroke="#000" stroke-width=".5"/></g></g><path d="m140.39444 104.26046 14.57018 7.23512-14.57018 7.23512z" fill="none" stroke="#000" stroke-width=".5"/><path d="m154.96461 111.49558h5.7887" fill="none" stroke="#000" stroke-width=".5"/><path d="m139.28296 144.7389h-3.74177v12.13328" fill="none" stroke="#000" stroke-width=".5"/><path d="m139.28296 134.45786h-3.74177v-22.96228h4.85325" fill="none" stroke="#000" stroke-width=".5"/><g transform="translate(94.203195 29.68797)"><rect fill="none" height="22.383821" rx=".000007" stroke="#000" stroke-linecap="square" stroke-linejoin="round" stroke-width=".5" width="17.105249" x="70.291878" y="98.418739"/><text style="font-style:italic;font-weight:bold;font-size:10.583333;font-family:sans-serif;letter-spacing:0;word-spacing:0;stroke-width:.264583" x="71.8955" y="106.69871"><tspan font-family="sans-serif" font-size="5.291667" font-style="normal" font-weight="normal" stroke-width=".264583" x="71.8955" y="106.69871">D</tspan></text><text style="font-style:italic;font-weight:bold;font-size:10.583333;font-family:sans-serif;letter-spacing:0;word-spacing:0;stroke-width:.264583" x="81.639618" y="106.63485"><tspan font-family="sans-serif" font-size="5.291667" font-style="normal" font-weight="normal" stroke-width=".264583" x="81.639618" y="106.63485">Q</tspan></text><g transform="translate(0 -.529167)"><text style="font-style:italic;font-weight:bold;font-size:10.583333;font-family:sans-serif;letter-spacing:0;word-spacing:0;stroke-width:.264583" x="75.567924" y="117.50632"><tspan font-family="sans-serif" font-size="5.291667" font-style="normal" font-weight="normal" stroke-width=".264583" x="75.567924" y="117.50632">CLK</tspan></text><path d="m70.291878 117.38416 4.009051-1.80407-4.009051-1.80407" fill="none" stroke="#000" stroke-width=".5"/></g></g><path d="m165.60656 104.26046 14.57018 7.23512-14.57018 7.23512z" fill="none" stroke="#000" stroke-width=".5"/><path d="m180.17674 111.49558h5.78869" fill="none" stroke="#000" stroke-width=".5"/><path d="m164.49508 144.7389h-3.74177v12.13328" fill="none" stroke="#000" stroke-width=".5"/><path d="m164.49508 134.45786h-3.74177v-22.96228h4.85325" fill="none" stroke="#000" stroke-width=".5"/><g transform="translate(119.41532 29.687968)"><rect fill="none" height="22.383821" rx=".000007" stroke="#000" stroke-linecap="square" stroke-linejoin="round" stroke-width=".5" width="17.105249" x="70.291878" y="98.418739"/><text style="font-style:italic;font-weight:bold;font-size:10.583333;font-family:sans-serif;letter-spacing:0;word-spacing:0;stroke-width:.264583" x="71.8955" y="106.69871"><tspan font-family="sans-serif" font-size="5.291667" font-style="normal" font-weight="normal" stroke-width=".264583" x="71.8955" y="106.69871">D</tspan></text><text style="font-style:italic;font-weight:bold;font-size:10.583333;font-family:sans-serif;letter-spacing:0;word-spacing:0;stroke-width:.264583" x="81.639618" y="106.63485"><tspan font-family="sans-serif" font-size="5.291667" font-style="normal" font-weight="normal" stroke-width=".264583" x="81.639618" y="106.63485">Q</tspan></text><g transform="translate(0 -.529167)"><text style="font-style:italic;font-weight:bold;font-size:10.583333;font-family:sans-serif;letter-spacing:0;word-spacing:0;stroke-width:.264583" x="75.567924" y="117.50632"><tspan font-family="sans-serif" font-size="5.291667" font-style="normal" font-weight="normal" stroke-width=".264583" x="75.567924" y="117.50632">CLK</tspan></text><path d="m70.291878 117.38416 4.009051-1.80407-4.009051-1.80407" fill="none" stroke="#000" stroke-width=".5"/></g></g><path d="m190.81868 104.26045 14.57018 7.23513-14.57018 7.23512z" fill="none" stroke="#000" stroke-width=".5"/><path d="m205.38886 111.49557h5.78869" fill="none" stroke="#000" stroke-width=".5"/><path d="m189.7072 144.7389h-3.74177v12.13328" fill="none" stroke="#000" stroke-width=".5"/><path d="m189.7072 134.45786h-3.74177v-22.96228h4.85325" fill="none" stroke="#000" stroke-width=".5"/><g transform="translate(144.62744 29.687966)"><rect fill="none" height="22.383821" rx=".000007" stroke="#000" stroke-linecap="square" stroke-linejoin="round" stroke-width=".5" width="17.105249" x="70.291878" y="98.418739"/><text style="font-style:italic;font-weight:bold;font-size:10.583333;font-family:sans-serif;letter-spacing:0;word-spacing:0;stroke-width:.264583" x="71.8955" y="106.69871"><tspan font-family="sans-serif" font-size="5.291667" font-style="normal" font-weight="normal" stroke-width=".264583" x="71.8955" y="106.69871">D</tspan></text><text style="font-style:italic;font-weight:bold;font-size:10.583333;font-family:sans-serif;letter-spacing:0;word-spacing:0;stroke-width:.264583" x="81.639618" y="106.63485"><tspan font-family="sans-serif" font-size="5.291667" font-style="normal" font-weight="normal" stroke-width=".264583" x="81.639618" y="106.63485">Q</tspan></text><g transform="translate(0 -.529167)"><text style="font-style:italic;font-weight:bold;font-size:10.583333;font-family:sans-serif;letter-spacing:0;word-spacing:0;stroke-width:.264583" x="75.567924" y="117.50632"><tspan font-family="sans-serif" font-size="5.291667" font-style="normal" font-weight="normal" stroke-width=".264583" x="75.567924" y="117.50632">CLK</tspan></text><path d="m70.291878 117.38416 4.009051-1.80407-4.009051-1.80407" fill="none" stroke="#000" stroke-width=".5"/></g></g><path d="m216.0308 104.26045 14.57018 7.23512-14.57018 7.23513z" fill="none" stroke="#000" stroke-width=".5"/><path d="m214.91932 144.7389h-3.74177v12.13328" fill="none" stroke="#000" stroke-width=".5"/><path d="m214.91932 134.45786h-3.74177v-22.96229h4.85325" fill="none" stroke="#000" stroke-width=".5"/><path d="m-15.731546 156.87219 252.121226-.00001" fill="none" stroke="#000" stroke-width=".5"/><path d="m-15.731545 156.87219h-3.717692" fill="none" stroke="#000" stroke-width=".5"/><path d="m-10.878295 111.49559h-8.570943" fill="none" stroke="#000" stroke-width=".5"/><g style="font-style:italic;font-weight:bold;font-size:10.583333;font-family:sans-serif;letter-spacing:0;word-spacing:0;stroke-width:.264583"><text x="-5.743644" y="101.11249"><tspan font-family="sans-serif" font-size="7.055555" font-style="normal" font-weight="normal" stroke-width=".264583" x="-5.743644" y="101.11249">1</tspan></text><text x="19.625231" y="101.159"><tspan font-family="sans-serif" font-size="7.055555" font-style="normal" font-weight="normal" stroke-width=".264583" x="19.625231" y="101.159">2</tspan></text><text x="44.756401" y="101.10904"><tspan font-family="sans-serif" font-size="7.055555" font-style="normal" font-weight="normal" stroke-width=".264583" x="44.756401" y="101.10904">3</tspan></text><text x="68.835075" y="98.978249"><tspan font-family="sans-serif" font-size="7.055555" font-style="normal" font-weight="normal" stroke-width=".264583" x="68.835075" y="98.978249">...</tspan></text><text x="169.68356" y="98.978249"><tspan font-family="sans-serif" font-size="7.055555" font-style="normal" font-weight="normal" stroke-width=".264583" x="169.68356" y="98.978249">...</tspan></text><text x="192.08104" y="101.11249"><tspan font-family="sans-serif" font-size="7.055555" font-style="normal" font-weight="normal" stroke-width=".264583" x="192.08104" y="101.11249">N-1</tspan></text><text x="220.83301" y="101.11249"><tspan font-family="sans-serif" font-size="7.055555" font-style="normal" font-weight="normal" stroke-width=".264583" x="220.83301" y="101.11249">N</tspan></text></g><g transform="translate(18.566833 29.687973)"><rect fill="none" height="22.383821" rx=".000007" stroke="#000" stroke-linecap="square" stroke-linejoin="round" stroke-width=".5" width="17.105249" x="70.291878" y="98.418739"/><text style="font-style:italic;font-weight:bold;font-size:10.583333;font-family:sans-serif;letter-spacing:0;word-spacing:0;stroke-width:.264583" x="71.8955" y="106.69871"><tspan font-family="sans-serif" font-size="5.291667" font-style="normal" font-weight="normal" stroke-width=".264583" x="71.8955" y="106.69871">D</tspan></text><text style="font-style:italic;font-weight:bold;font-size:10.583333;font-family:sans-serif;letter-spacing:0;word-spacing:0;stroke-width:.264583" x="81.639618" y="106.63485"><tspan font-family="sans-serif" font-size="5.291667" font-style="normal" font-weight="normal" stroke-width=".264583" x="81.639618" y="106.63485">Q</tspan></text><g transform="translate(0 -.529167)"><text style="font-style:italic;font-weight:bold;font-size:10.583333;font-family:sans-serif;letter-spacing:0;word-spacing:0;stroke-width:.264583" x="75.567924" y="117.50632"><tspan font-family="sans-serif" font-size="5.291667" font-style="normal" font-weight="normal" stroke-width=".264583" x="75.567924" y="117.50632">CLK</tspan></text><path d="m70.291878 117.38416 4.009051-1.80407-4.009051-1.80407" fill="none" stroke="#000" stroke-width=".5"/></g></g><path d="m89.970196 104.26046 14.570184 7.23512-14.570184 7.23513z" fill="none" stroke="#000" stroke-width=".5"/><path d="m104.54037 111.49558h5.7887" fill="none" stroke="#000" stroke-width=".5"/><path d="m88.858716 144.73891h-3.74177v12.13328" fill="none" stroke="#000" stroke-width=".5"/><path d="m88.858716 134.45787h-3.74177v-22.96229h4.85325" fill="none" stroke="#000" stroke-width=".5"/><path d="m114.07084 144.73891h-3.74177v12.13328" fill="none" stroke="#000" stroke-width=".5"/><path d="m110.42695 103.4173c10.00806-12.275267 19.21351-.82601 21.77093 1.6368" fill="none" marker-end="url(#a)" stroke="#000" stroke-width=".5"/><text style="font-style:italic;font-weight:bold;font-size:10.583333;font-family:sans-serif;letter-spacing:0;word-spacing:0;stroke-width:.264583" x="119.66257" y="93.726288"><tspan font-family="sans-serif" font-size="7.055555" font-style="italic" font-weight="normal" stroke-width=".264583" x="119.66257" y="93.726288">t<tspan baseline-shift="sub" font-size="64.999998%">p</tspan></tspan></text><g transform="translate(169.83956 29.687966)"><rect fill="none" height="22.383821" rx=".000007" stroke="#000" stroke-linecap="square" stroke-linejoin="round" stroke-width=".5" width="17.105249" x="70.291878" y="98.418739"/><text style="font-style:italic;font-weight:bold;font-size:10.583333;font-family:sans-serif;letter-spacing:0;word-spacing:0;stroke-width:.264583" x="71.8955" y="106.69871"><tspan font-family="sans-serif" font-size="5.291667" font-style="normal" font-weight="normal" stroke-width=".264583" x="71.8955" y="106.69871">D</tspan></text><text style="font-style:italic;font-weight:bold;font-size:10.583333;font-family:sans-serif;letter-spacing:0;word-spacing:0;stroke-width:.264583" x="81.639618" y="106.63485"><tspan font-family="sans-serif" font-size="5.291667" font-style="normal" font-weight="normal" stroke-width=".264583" x="81.639618" y="106.63485">Q</tspan></text><g transform="translate(0 -.529167)"><text style="font-style:italic;font-weight:bold;font-size:10.583333;font-family:sans-serif;letter-spacing:0;word-spacing:0;stroke-width:.264583" x="75.567924" y="117.50632"><tspan font-family="sans-serif" font-size="5.291667" font-style="normal" font-weight="normal" stroke-width=".264583" x="75.567924" y="117.50632">CLK</tspan></text><path d="m70.291878 117.38416 4.009051-1.80407-4.009051-1.80407" fill="none" stroke="#000" stroke-width=".5"/></g></g><path d="m240.13144 144.73889h-3.74177v12.13329" fill="none" stroke="#000" stroke-width=".5"/><path d="m240.13144 134.45785h-3.74177v-22.96228h-5.78869" fill="none" stroke="#000" stroke-width=".5"/><g transform="translate(.388756)"><text style="font-style:italic;font-weight:bold;font-size:10.583333;font-family:sans-serif;letter-spacing:0;word-spacing:0;stroke-width:.264583" x="-43.968781" y="103.475"><tspan font-family="sans-serif" font-size="6.35" font-style="normal" font-weight="normal" stroke-width=".264583" x="-43.968781" y="103.475">START</tspan></text><g fill="none" stroke="#000" stroke-width=".5" transform="matrix(1 0 0 -1 -6.168916 -54.618081)"><path d="m-30.730552-171.0806h6.031046v9.52374" marker-end="url(#b)"/><path d="m-24.699507-161.0277h6.104962"/></g></g><text style="font-style:italic;font-weight:bold;font-size:10.583333;font-family:sans-serif;letter-spacing:0;word-spacing:0;stroke-width:.264583" x="-40.49184" y="148.90587"><tspan font-family="sans-serif" font-size="6.35" font-style="normal" font-weight="normal" stroke-width=".264583" x="-40.49184" y="148.90587">STOP</tspan></text><g fill="none" stroke="#000" stroke-width=".5" transform="matrix(1 0 0 -1 -5.780188 -9.187538)"><path d="m-30.730552-171.0806h6.031046v9.52374" marker-end="url(#c)"/><path d="m-24.699507-161.0277h6.104962"/></g></g></svg>