<?xml version="1.0" encoding="UTF-8" standalone="no"?>
<?xml-stylesheet href="doxygen.css" type="text/css"?>
<!DOCTYPE svg PUBLIC "-//W3C//DTD SVG 1.1//EN"
 "http://www.w3.org/Graphics/SVG/1.1/DTD/svg11.dtd">
<!-- Generated by graphviz version 2.43.0 (0)
 -->
<!-- Title: G Pages: 1 -->
<svg width="250pt" height="232pt"
 viewBox="0.00 0.00 250.00 232.00" xmlns="http://www.w3.org/2000/svg" xmlns:xlink="http://www.w3.org/1999/xlink">
<g id="graph0" class="graph" transform="scale(1 1) rotate(0) translate(4 228)">
<title>G</title>
<polygon fill="white" stroke="transparent" points="-4,4 -4,-228 246,-228 246,4 -4,4"/>
<!-- node5 -->
<g id="node1" class="node">
<title>node5</title>
<path fill="none" stroke="black" d="M230,-224C230,-224 12,-224 12,-224 6,-224 0,-218 0,-212 0,-212 0,-200 0,-200 0,-194 6,-188 12,-188 12,-188 230,-188 230,-188 236,-188 242,-194 242,-200 242,-200 242,-212 242,-212 242,-218 236,-224 230,-224"/>
<polygon fill="white" stroke="transparent" points="8,-198 8,-213 234,-213 234,-198 8,-198"/>
<text text-anchor="start" x="8" y="-201.8" font-family="Times,serif" font-size="14.00"> AsyncInput_process:process( ) </text>
</g>
<!-- node1 -->
<g id="node2" class="node">
<title>node1</title>
<polygon fill="lightcyan" stroke="transparent" points="7,-79 7,-145 235,-145 235,-79 7,-79"/>
<polygon fill="none" stroke="black" points="7,-79 7,-145 235,-145 235,-79 7,-79"/>
<text text-anchor="start" x="10" y="-130.8" font-family="Times,serif" font-size="14.00"> AsyncInput&lt;= &#39;0&#39;</text>
<text text-anchor="start" x="10" y="-115.8" font-family="Times,serif" font-size="14.00"> wait &#160;for &#160;&#160;&#160;ASYNC_PERIOD/ 2</text>
<text text-anchor="start" x="10" y="-100.8" font-family="Times,serif" font-size="14.00">AsyncInput&lt;= &#39;1&#39;</text>
<text text-anchor="start" x="10" y="-85.8" font-family="Times,serif" font-size="14.00"> wait &#160;for &#160;&#160;&#160;ASYNC_PERIOD/ 2 </text>
</g>
<!-- node5&#45;&gt;node1 -->
<g id="edge1" class="edge">
<title>node5&#45;&gt;node1</title>
<path fill="none" stroke="green" d="M121,-187.7C121,-180.43 121,-171.58 121,-162.55"/>
<polygon fill="green" stroke="green" points="124.5,-162.35 121,-152.35 117.5,-162.35 124.5,-162.35"/>
</g>
<!-- node6 -->
<g id="node3" class="node">
<title>node6</title>
<path fill="none" stroke="black" d="M167,-36C167,-36 75,-36 75,-36 69,-36 63,-30 63,-24 63,-24 63,-12 63,-12 63,-6 69,0 75,0 75,0 167,0 167,0 173,0 179,-6 179,-12 179,-12 179,-24 179,-24 179,-30 173,-36 167,-36"/>
<polygon fill="white" stroke="transparent" points="71,-10 71,-25 171,-25 171,-10 71,-10"/>
<text text-anchor="start" x="71" y="-13.8" font-family="Times,serif" font-size="14.00"> end process &#160;</text>
</g>
<!-- node1&#45;&gt;node6 -->
<g id="edge2" class="edge">
<title>node1&#45;&gt;node6</title>
<path fill="none" stroke="green" d="M121,-71.98C121,-63.27 121,-54.21 121,-46.1"/>
<polygon fill="green" stroke="green" points="124.5,-46.09 121,-36.09 117.5,-46.09 124.5,-46.09"/>
</g>
</g>
</svg>
