<?xml version="1.0" encoding="UTF-8" standalone="no"?>
<?xml-stylesheet href="doxygen.css" type="text/css"?>
<!DOCTYPE svg PUBLIC "-//W3C//DTD SVG 1.1//EN"
 "http://www.w3.org/Graphics/SVG/1.1/DTD/svg11.dtd">
<!-- Generated by graphviz version 2.43.0 (0)
 -->
<!-- Title: G Pages: 1 -->
<svg width="229pt" height="232pt"
 viewBox="0.00 0.00 229.00 232.00" xmlns="http://www.w3.org/2000/svg" xmlns:xlink="http://www.w3.org/1999/xlink">
<g id="graph0" class="graph" transform="scale(1 1) rotate(0) translate(4 228)">
<title>G</title>
<polygon fill="white" stroke="transparent" points="-4,4 -4,-228 225,-228 225,4 -4,4"/>
<!-- node5 -->
<g id="node1" class="node">
<title>node5</title>
<path fill="none" stroke="black" d="M189.5,-224C189.5,-224 31.5,-224 31.5,-224 25.5,-224 19.5,-218 19.5,-212 19.5,-212 19.5,-200 19.5,-200 19.5,-194 25.5,-188 31.5,-188 31.5,-188 189.5,-188 189.5,-188 195.5,-188 201.5,-194 201.5,-200 201.5,-200 201.5,-212 201.5,-212 201.5,-218 195.5,-224 189.5,-224"/>
<polygon fill="white" stroke="transparent" points="27.5,-198 27.5,-213 193.5,-213 193.5,-198 27.5,-198"/>
<text text-anchor="start" x="27.5" y="-201.8" font-family="Times,serif" font-size="14.00"> clk_process:process( ) </text>
</g>
<!-- node1 -->
<g id="node2" class="node">
<title>node1</title>
<polygon fill="lightcyan" stroke="transparent" points="7.5,-79 7.5,-145 214.5,-145 214.5,-79 7.5,-79"/>
<polygon fill="none" stroke="black" points="7.5,-79 7.5,-145 214.5,-145 214.5,-79 7.5,-79"/>
<text text-anchor="start" x="10.5" y="-130.8" font-family="Times,serif" font-size="14.00"> clk&lt;= &#39;0&#39;</text>
<text text-anchor="start" x="10.5" y="-115.8" font-family="Times,serif" font-size="14.00"> wait &#160;for &#160;&#160;&#160;CLK_PERIOD/ 2</text>
<text text-anchor="start" x="10.5" y="-100.8" font-family="Times,serif" font-size="14.00">clk&lt;= &#39;1&#39;</text>
<text text-anchor="start" x="10.5" y="-85.8" font-family="Times,serif" font-size="14.00"> wait &#160;for &#160;&#160;&#160;CLK_PERIOD/ 2 </text>
</g>
<!-- node5&#45;&gt;node1 -->
<g id="edge1" class="edge">
<title>node5&#45;&gt;node1</title>
<path fill="none" stroke="green" d="M110.5,-187.7C110.5,-180.43 110.5,-171.58 110.5,-162.55"/>
<polygon fill="green" stroke="green" points="114,-162.35 110.5,-152.35 107,-162.35 114,-162.35"/>
</g>
<!-- node6 -->
<g id="node3" class="node">
<title>node6</title>
<path fill="none" stroke="black" d="M156.5,-36C156.5,-36 64.5,-36 64.5,-36 58.5,-36 52.5,-30 52.5,-24 52.5,-24 52.5,-12 52.5,-12 52.5,-6 58.5,0 64.5,0 64.5,0 156.5,0 156.5,0 162.5,0 168.5,-6 168.5,-12 168.5,-12 168.5,-24 168.5,-24 168.5,-30 162.5,-36 156.5,-36"/>
<polygon fill="white" stroke="transparent" points="60.5,-10 60.5,-25 160.5,-25 160.5,-10 60.5,-10"/>
<text text-anchor="start" x="60.5" y="-13.8" font-family="Times,serif" font-size="14.00"> end process &#160;</text>
</g>
<!-- node1&#45;&gt;node6 -->
<g id="edge2" class="edge">
<title>node1&#45;&gt;node6</title>
<path fill="none" stroke="green" d="M110.5,-71.98C110.5,-63.27 110.5,-54.21 110.5,-46.1"/>
<polygon fill="green" stroke="green" points="114,-46.09 110.5,-36.09 107,-46.09 114,-46.09"/>
</g>
</g>
</svg>
