<?xml version="1.0" encoding="UTF-8" standalone="no"?>
<?xml-stylesheet href="doxygen.css" type="text/css"?>
<!DOCTYPE svg PUBLIC "-//W3C//DTD SVG 1.1//EN"
 "http://www.w3.org/Graphics/SVG/1.1/DTD/svg11.dtd">
<!-- Generated by graphviz version 2.43.0 (0)
 -->
<!-- Title: G Pages: 1 -->
<svg width="275pt" height="232pt"
 viewBox="0.00 0.00 275.00 232.00" xmlns="http://www.w3.org/2000/svg" xmlns:xlink="http://www.w3.org/1999/xlink">
<g id="graph0" class="graph" transform="scale(1 1) rotate(0) translate(4 228)">
<title>G</title>
<polygon fill="white" stroke="transparent" points="-4,4 -4,-228 271,-228 271,4 -4,4"/>
<!-- node5 -->
<g id="node1" class="node">
<title>node5</title>
<path fill="none" stroke="black" d="M220.5,-224C220.5,-224 46.5,-224 46.5,-224 40.5,-224 34.5,-218 34.5,-212 34.5,-212 34.5,-200 34.5,-200 34.5,-194 40.5,-188 46.5,-188 46.5,-188 220.5,-188 220.5,-188 226.5,-188 232.5,-194 232.5,-200 232.5,-200 232.5,-212 232.5,-212 232.5,-218 226.5,-224 220.5,-224"/>
<polygon fill="white" stroke="transparent" points="42.5,-198 42.5,-213 224.5,-213 224.5,-198 42.5,-198"/>
<text text-anchor="start" x="42.5" y="-201.8" font-family="Times,serif" font-size="14.00"> reset_process:process( ) </text>
</g>
<!-- node1 -->
<g id="node2" class="node">
<title>node1</title>
<polygon fill="lightcyan" stroke="transparent" points="7.5,-79 7.5,-145 260.5,-145 260.5,-79 7.5,-79"/>
<polygon fill="none" stroke="black" points="7.5,-79 7.5,-145 260.5,-145 260.5,-79 7.5,-79"/>
<text text-anchor="start" x="10.5" y="-130.8" font-family="Times,serif" font-size="14.00"> reset&lt;= &#39;1&#39;</text>
<text text-anchor="start" x="10.5" y="-115.8" font-family="Times,serif" font-size="14.00"> wait &#160;for &#160;10* &#160;&#160;CLK_PERIOD</text>
<text text-anchor="start" x="10.5" y="-100.8" font-family="Times,serif" font-size="14.00">reset&lt;= &#39;0&#39;</text>
<text text-anchor="start" x="10.5" y="-85.8" font-family="Times,serif" font-size="14.00"> wait &#160;&#160;&#160;&#160;&#160;&#160;&#160;&#160;&#160;&#160;&#160;&#160;&#160;&#160;&#160;&#160;&#160;&#160;&#160;&#160;&#160;&#160;&#160;&#160;&#160;&#160;&#160;&#160;&#160;&#160;&#160;&#160;&#160;&#160;&#160;&#160;&#160;&#160;&#160;&#160;&#160;&#160;&#160;&#160;. </text>
</g>
<!-- node5&#45;&gt;node1 -->
<g id="edge1" class="edge">
<title>node5&#45;&gt;node1</title>
<path fill="none" stroke="green" d="M133.5,-187.7C133.5,-180.43 133.5,-171.58 133.5,-162.55"/>
<polygon fill="green" stroke="green" points="137,-162.35 133.5,-152.35 130,-162.35 137,-162.35"/>
</g>
<!-- node6 -->
<g id="node3" class="node">
<title>node6</title>
<path fill="none" stroke="black" d="M179.5,-36C179.5,-36 87.5,-36 87.5,-36 81.5,-36 75.5,-30 75.5,-24 75.5,-24 75.5,-12 75.5,-12 75.5,-6 81.5,0 87.5,0 87.5,0 179.5,0 179.5,0 185.5,0 191.5,-6 191.5,-12 191.5,-12 191.5,-24 191.5,-24 191.5,-30 185.5,-36 179.5,-36"/>
<polygon fill="white" stroke="transparent" points="83.5,-10 83.5,-25 183.5,-25 183.5,-10 83.5,-10"/>
<text text-anchor="start" x="83.5" y="-13.8" font-family="Times,serif" font-size="14.00"> end process &#160;</text>
</g>
<!-- node1&#45;&gt;node6 -->
<g id="edge2" class="edge">
<title>node1&#45;&gt;node6</title>
<path fill="none" stroke="green" d="M133.5,-71.98C133.5,-63.27 133.5,-54.21 133.5,-46.1"/>
<polygon fill="green" stroke="green" points="137,-46.09 133.5,-36.09 130,-46.09 137,-46.09"/>
</g>
</g>
</svg>
