<?xml version="1.0" encoding="UTF-8" standalone="no"?>
<?xml-stylesheet href="doxygen.css" type="text/css"?>
<!DOCTYPE svg PUBLIC "-//W3C//DTD SVG 1.1//EN"
 "http://www.w3.org/Graphics/SVG/1.1/DTD/svg11.dtd">
<!-- Generated by graphviz version 2.43.0 (0)
 -->
<!-- Title: G Pages: 1 -->
<svg width="1700pt" height="827pt"
 viewBox="0.00 0.00 1700.00 827.00" xmlns="http://www.w3.org/2000/svg" xmlns:xlink="http://www.w3.org/1999/xlink">
<g id="graph0" class="graph" transform="scale(1 1) rotate(0) translate(4 823)">
<title>G</title>
<polygon fill="white" stroke="transparent" points="-4,4 -4,-823 1696,-823 1696,4 -4,4"/>
<!-- node15 -->
<g id="node1" class="node">
<title>node15</title>
<path fill="none" stroke="black" d="M653.5,-819C653.5,-819 182.5,-819 182.5,-819 176.5,-819 170.5,-813 170.5,-807 170.5,-807 170.5,-795 170.5,-795 170.5,-789 176.5,-783 182.5,-783 182.5,-783 653.5,-783 653.5,-783 659.5,-783 665.5,-789 665.5,-795 665.5,-795 665.5,-807 665.5,-807 665.5,-813 659.5,-819 653.5,-819"/>
<polygon fill="white" stroke="transparent" points="179,-793 179,-808 658,-808 658,-793 179,-793"/>
<text text-anchor="start" x="179" y="-796.8" font-family="Times,serif" font-size="14.00"> SamplingTDL:process( reset,clk,SampledTaps,SampledTaps_pipe) </text>
</g>
<!-- node1 -->
<g id="node2" class="node">
<title>node1</title>
<polygon fill="#c1b2ff" stroke="#c1b2ff" points="418,-746 275.56,-728 418,-710 560.44,-728 418,-746"/>
<text text-anchor="middle" x="418" y="-724.3" font-family="Times,serif" font-size="14.00"> if &#160;&#160;&#160;reset= &#39;1&#39; then</text>
</g>
<!-- node15&#45;&gt;node1 -->
<g id="edge1" class="edge">
<title>node15&#45;&gt;node1:n</title>
<path fill="none" stroke="green" d="M418,-782.98C418,-775.17 418,-765.56 418,-756.11"/>
<polygon fill="green" stroke="green" points="421.5,-756 418,-746 414.5,-756 421.5,-756"/>
</g>
<!-- node2 -->
<g id="node3" class="node">
<title>node2</title>
<polygon fill="lightcyan" stroke="transparent" points="7,-562 7,-598 281,-598 281,-562 7,-562"/>
<polygon fill="none" stroke="black" points="7,-562 7,-598 281,-598 281,-562 7,-562"/>
<text text-anchor="start" x="10" y="-583.8" font-family="Times,serif" font-size="14.00"> SampledTaps&lt;=( others =&gt; &#39;&#45;&#39;)</text>
<text text-anchor="start" x="10" y="-568.8" font-family="Times,serif" font-size="14.00">SampledTaps_pipe&lt;=( others =&gt; &#39;&#45;&#39;) </text>
</g>
<!-- node1&#45;&gt;node2 -->
<g id="edge2" class="edge">
<title>node1:s&#45;&gt;node2</title>
<path fill="none" stroke="red" d="M418,-710C418,-698.62 292.57,-643.58 211.44,-609.18"/>
<polygon fill="red" stroke="red" points="212.35,-605.76 201.77,-605.09 209.62,-612.21 212.35,-605.76"/>
<text text-anchor="middle" x="402.5" y="-680.8" font-family="Times,serif" font-size="14.00">yes</text>
</g>
<!-- node4 -->
<g id="node4" class="node">
<title>node4</title>
<polygon fill="#c1b2ff" stroke="#c1b2ff" points="757,-659 547.36,-641 757,-623 966.64,-641 757,-659"/>
<text text-anchor="middle" x="757" y="-637.3" font-family="Times,serif" font-size="14.00"> elsif &#160;&#160;&#160;rising_edge(clk &#160;) then</text>
</g>
<!-- node1&#45;&gt;node4 -->
<g id="edge3" class="edge">
<title>node1:s&#45;&gt;node4</title>
<path fill="none" stroke="black" d="M418,-710C418,-670.62 507.03,-653.75 593.84,-646.65"/>
<polygon fill="black" stroke="black" points="594.17,-650.14 603.86,-645.87 593.62,-643.16 594.17,-650.14"/>
<text text-anchor="middle" x="451" y="-680.8" font-family="Times,serif" font-size="14.00">no</text>
</g>
<!-- node10 -->
<g id="node8" class="node">
<title>node10</title>
<polygon fill="#c1b2ff" stroke="#c1b2ff" points="887,-304 610.17,-286 887,-268 1163.83,-286 887,-304"/>
<text text-anchor="middle" x="887" y="-282.3" font-family="Times,serif" font-size="14.00"> if &#160;&#160;&#160;BUFFERING_STAGE= &#160;&#160;TRUE then</text>
</g>
<!-- node2&#45;&gt;node10 -->
<g id="edge4" class="edge">
<title>node2&#45;&gt;node10:n</title>
<path fill="none" stroke="green" d="M55.08,-554.88C48.06,-549.98 41.83,-544.09 37,-537 27.99,-523.78 27.53,-513.9 37,-501 177.61,-309.52 313.21,-383.17 547,-341 584.23,-334.29 863.86,-352.93 887,-323"/>
<path fill="none" stroke="green" d="M887,-322C889.31,-319.12 889.49,-316.77 889.01,-314.29"/>
<polygon fill="green" stroke="green" points="892.42,-313.48 887,-304.37 885.56,-314.87 892.42,-313.48"/>
</g>
<!-- node5 -->
<g id="node5" class="node">
<title>node5</title>
<polygon fill="lightcyan" stroke="transparent" points="53,-508 53,-529 1461,-529 1461,-508 53,-508"/>
<polygon fill="none" stroke="black" points="53,-508 53,-529 1461,-529 1461,-508 53,-508"/>
<text text-anchor="start" x="56" y="-514.8" font-family="Times,serif" font-size="14.00"> SampledTaps&lt;= &#160;&#160;Sample_AsyncTapsTDL( &#160;&#160;TYPE_TDL, &#160;&#160;NUM_TAP_TDL, &#160;&#160;OFFSET_TAP_TDL, &#160;&#160;BIT_SMP_TDL, &#160;&#160;BIT_SMP_PRE_TDL, &#160;&#160;NUM_TAP_PRE_TDL, &#160;&#160;AsyncTaps_preTDL, &#160;&#160;AsyncTaps_TDL) </text>
</g>
<!-- node4&#45;&gt;node5 -->
<g id="edge5" class="edge">
<title>node4&#45;&gt;node5</title>
<path fill="none" stroke="red" d="M757,-622.81C757,-603.11 757,-570.58 757,-547.39"/>
<polygon fill="red" stroke="red" points="760.5,-547.16 757,-537.16 753.5,-547.16 760.5,-547.16"/>
<text text-anchor="middle" x="769.5" y="-576.3" font-family="Times,serif" font-size="14.00">yes</text>
</g>
<!-- node4&#45;&gt;node10 -->
<g id="edge6" class="edge">
<title>node4&#45;&gt;node10:n</title>
<path fill="none" stroke="black" d="M865.04,-632.26C1056.15,-617.47 1437.5,-582.55 1477,-537 1487.48,-524.91 1486.54,-513.84 1477,-501 1456.58,-473.52 865.56,-349.7 887,-323"/>
<text text-anchor="middle" x="1375" y="-442.3" font-family="Times,serif" font-size="14.00">no</text>
</g>
<!-- node6 -->
<g id="node6" class="node">
<title>node6</title>
<polygon fill="#c1b2ff" stroke="#c1b2ff" points="757,-464 480.17,-446 757,-428 1033.83,-446 757,-464"/>
<text text-anchor="middle" x="757" y="-442.3" font-family="Times,serif" font-size="14.00"> if &#160;&#160;&#160;BUFFERING_STAGE= &#160;&#160;TRUE then</text>
</g>
<!-- node5&#45;&gt;node6 -->
<g id="edge7" class="edge">
<title>node5&#45;&gt;node6:n</title>
<path fill="none" stroke="green" d="M757,-500.98C757,-493.17 757,-483.56 757,-474.11"/>
<polygon fill="green" stroke="green" points="760.5,-474 757,-464 753.5,-474 760.5,-474"/>
</g>
<!-- node7 -->
<g id="node7" class="node">
<title>node7</title>
<polygon fill="lightcyan" stroke="transparent" points="563,-348 563,-369 844,-369 844,-348 563,-348"/>
<polygon fill="none" stroke="black" points="563,-348 563,-369 844,-369 844,-348 563,-348"/>
<text text-anchor="start" x="566" y="-354.8" font-family="Times,serif" font-size="14.00"> SampledTaps_pipe&lt;= &#160;&#160;SampledTaps </text>
</g>
<!-- node6&#45;&gt;node7 -->
<g id="edge8" class="edge">
<title>node6:s&#45;&gt;node7</title>
<path fill="none" stroke="red" d="M757,-428C757,-410.9 746.39,-395.6 734.58,-383.86"/>
<polygon fill="red" stroke="red" points="736.89,-381.23 727.16,-377.03 732.15,-386.38 736.89,-381.23"/>
<text text-anchor="middle" x="764.5" y="-398.8" font-family="Times,serif" font-size="14.00">yes</text>
</g>
<!-- node6&#45;&gt;node10 -->
<g id="edge9" class="edge">
<title>node6:s&#45;&gt;node10:n</title>
<path fill="none" stroke="black" d="M757,-428C757,-415.23 850.95,-386.01 860,-377 879.01,-358.06 870.63,-344.26 887,-323"/>
<text text-anchor="middle" x="886" y="-355.3" font-family="Times,serif" font-size="14.00">no</text>
</g>
<!-- node7&#45;&gt;node10 -->
<g id="edge10" class="edge">
<title>node7&#45;&gt;node10:n</title>
<path fill="none" stroke="green" d="M850.53,-341.58C867.56,-336.86 881,-330.79 887,-323"/>
</g>
<!-- node11 -->
<g id="node9" class="node">
<title>node11</title>
<polygon fill="lightcyan" stroke="transparent" points="383,-134 383,-155 1221,-155 1221,-134 383,-134"/>
<polygon fill="none" stroke="black" points="383,-134 383,-155 1221,-155 1221,-134 383,-134"/>
<text text-anchor="start" x="386" y="-140.8" font-family="Times,serif" font-size="14.00"> SampledTaps_TDL&lt;= &#160;&#160;SampledTaps_pipe( &#160;&#160;BIT_SMP_TDL+ &#160;&#160;BIT_SMP_PRE_TDL&#45; 1 downto &#160;&#160;&#160;BIT_SMP_PRE_TDL) </text>
</g>
<!-- node10&#45;&gt;node11 -->
<g id="edge11" class="edge">
<title>node10:s&#45;&gt;node11</title>
<path fill="none" stroke="red" d="M887,-268C887,-256.37 875.39,-258.98 868,-250 847.63,-225.27 828.5,-193.86 816.13,-172.07"/>
<polygon fill="red" stroke="red" points="819.04,-170.09 811.1,-163.07 812.93,-173.51 819.04,-170.09"/>
<text text-anchor="middle" x="880.5" y="-238.8" font-family="Times,serif" font-size="14.00">yes</text>
</g>
<!-- node12 -->
<g id="node10" class="node">
<title>node12</title>
<polygon fill="#c1b2ff" stroke="#c1b2ff" points="1251,-217 951.21,-199 1251,-181 1550.79,-199 1251,-217"/>
<text text-anchor="middle" x="1251" y="-195.3" font-family="Times,serif" font-size="14.00"> elsif &#160;&#160;&#160;BUFFERING_STAGE= &#160;&#160;FALSE then</text>
</g>
<!-- node10&#45;&gt;node12 -->
<g id="edge12" class="edge">
<title>node10:s&#45;&gt;node12</title>
<path fill="none" stroke="black" d="M887,-268C887,-231.55 958.42,-214.05 1038,-205.86"/>
<polygon fill="black" stroke="black" points="1038.63,-209.32 1048.25,-204.86 1037.95,-202.35 1038.63,-209.32"/>
<text text-anchor="middle" x="920" y="-238.8" font-family="Times,serif" font-size="14.00">no</text>
</g>
<!-- node16 -->
<g id="node12" class="node">
<title>node16</title>
<path fill="none" stroke="black" d="M1284,-36C1284,-36 1192,-36 1192,-36 1186,-36 1180,-30 1180,-24 1180,-24 1180,-12 1180,-12 1180,-6 1186,0 1192,0 1192,0 1284,0 1284,0 1290,0 1296,-6 1296,-12 1296,-12 1296,-24 1296,-24 1296,-30 1290,-36 1284,-36"/>
<polygon fill="white" stroke="transparent" points="1188,-10 1188,-25 1288,-25 1288,-10 1188,-10"/>
<text text-anchor="start" x="1188" y="-13.8" font-family="Times,serif" font-size="14.00"> end process &#160;</text>
</g>
<!-- node11&#45;&gt;node16 -->
<g id="edge13" class="edge">
<title>node11&#45;&gt;node16</title>
<path fill="none" stroke="green" d="M801.55,-126.9C802.14,-110.27 805.94,-85.72 822,-73 840.14,-58.64 1238.84,-78.12 1238,-55"/>
<path fill="none" stroke="green" d="M1238,-54C1237.79,-51.46 1237.65,-48.81 1237.56,-46.15"/>
<polygon fill="green" stroke="green" points="1241.06,-46.07 1237.44,-36.11 1234.06,-46.15 1241.06,-46.07"/>
</g>
<!-- node13 -->
<g id="node11" class="node">
<title>node13</title>
<polygon fill="lightcyan" stroke="transparent" points="838,-80 838,-101 1639,-101 1639,-80 838,-80"/>
<polygon fill="none" stroke="black" points="838,-80 838,-101 1639,-101 1639,-80 838,-80"/>
<text text-anchor="start" x="841" y="-86.8" font-family="Times,serif" font-size="14.00"> SampledTaps_TDL&lt;= &#160;&#160;SampledTaps( &#160;&#160;BIT_SMP_TDL+ &#160;&#160;BIT_SMP_PRE_TDL&#45; 1 downto &#160;&#160;&#160;BIT_SMP_PRE_TDL) </text>
</g>
<!-- node12&#45;&gt;node13 -->
<g id="edge14" class="edge">
<title>node12&#45;&gt;node13</title>
<path fill="none" stroke="red" d="M1248.91,-180.97C1246.88,-164.38 1243.75,-138.88 1241.36,-119.43"/>
<polygon fill="red" stroke="red" points="1244.82,-118.84 1240.13,-109.34 1237.87,-119.69 1244.82,-118.84"/>
<text text-anchor="middle" x="1258.5" y="-141.3" font-family="Times,serif" font-size="14.00">yes</text>
</g>
<!-- node12&#45;&gt;node16 -->
<g id="edge15" class="edge">
<title>node12&#45;&gt;node16</title>
<path fill="none" stroke="black" d="M1440.62,-192.36C1579.38,-181.78 1731.18,-152.53 1655,-73 1622.92,-39.51 1241.77,-101.22 1238,-55"/>
<text text-anchor="middle" x="1683" y="-87.3" font-family="Times,serif" font-size="14.00">no</text>
</g>
<!-- node13&#45;&gt;node16 -->
<g id="edge16" class="edge">
<title>node13&#45;&gt;node16</title>
<path fill="none" stroke="green" d="M1238.25,-72.91C1238.27,-67.21 1238.21,-60.83 1238,-55"/>
</g>
</g>
</svg>
