<?xml version="1.0" encoding="UTF-8" standalone="no"?>
<?xml-stylesheet href="doxygen.css" type="text/css"?>
<!DOCTYPE svg PUBLIC "-//W3C//DTD SVG 1.1//EN"
 "http://www.w3.org/Graphics/SVG/1.1/DTD/svg11.dtd">
<!-- Generated by graphviz version 2.43.0 (0)
 -->
<!-- Title: G Pages: 1 -->
<svg width="1405pt" height="886pt"
 viewBox="0.00 0.00 1405.15 886.00" xmlns="http://www.w3.org/2000/svg" xmlns:xlink="http://www.w3.org/1999/xlink">
<g id="graph0" class="graph" transform="scale(1 1) rotate(0) translate(4 882)">
<title>G</title>
<polygon fill="white" stroke="transparent" points="-4,4 -4,-882 1401.15,-882 1401.15,4 -4,4"/>
<!-- node15 -->
<g id="node1" class="node">
<title>node15</title>
<path fill="none" stroke="black" d="M678,-878C678,-878 19,-878 19,-878 13,-878 7,-872 7,-866 7,-866 7,-854 7,-854 7,-848 13,-842 19,-842 19,-842 678,-842 678,-842 684,-842 690,-848 690,-854 690,-854 690,-866 690,-866 690,-872 684,-878 678,-878"/>
<polygon fill="white" stroke="transparent" points="15.5,-852 15.5,-867 682.5,-867 682.5,-852 15.5,-852"/>
<text text-anchor="start" x="15.5" y="-855.8" font-family="Times,serif" font-size="14.00"> ValidTDL:process( reset,clk,Valid_SampledTaps,Valid_SampledTaps_pipe,RiseValid,FallValid) </text>
</g>
<!-- node1 -->
<g id="node2" class="node">
<title>node1</title>
<polygon fill="lightcyan" stroke="transparent" points="7.5,-776 7.5,-797 690.5,-797 690.5,-776 7.5,-776"/>
<polygon fill="none" stroke="black" points="7.5,-776 7.5,-797 690.5,-797 690.5,-776 7.5,-776"/>
<text text-anchor="start" x="10.5" y="-782.8" font-family="Times,serif" font-size="14.00"> Valid_SampledTaps&lt;= &#160;&#160;Compute_ValidSampledTapsTDL( &#160;&#160;TYPE_TDL, &#160;&#160;RiseValid, &#160;&#160;FallValid) </text>
</g>
<!-- node15&#45;&gt;node1 -->
<g id="edge1" class="edge">
<title>node15&#45;&gt;node1</title>
<path fill="none" stroke="green" d="M348.5,-841.81C348.5,-833.79 348.5,-824.05 348.5,-815.07"/>
<polygon fill="green" stroke="green" points="352,-815.03 348.5,-805.03 345,-815.03 352,-815.03"/>
</g>
<!-- node2 -->
<g id="node3" class="node">
<title>node2</title>
<polygon fill="#c1b2ff" stroke="#c1b2ff" points="348.5,-732 206.06,-714 348.5,-696 490.94,-714 348.5,-732"/>
<text text-anchor="middle" x="348.5" y="-710.3" font-family="Times,serif" font-size="14.00"> if &#160;&#160;&#160;reset= &#39;1&#39; then</text>
</g>
<!-- node1&#45;&gt;node2 -->
<g id="edge2" class="edge">
<title>node1&#45;&gt;node2:n</title>
<path fill="none" stroke="green" d="M348.5,-768.98C348.5,-761.17 348.5,-751.56 348.5,-742.11"/>
<polygon fill="green" stroke="green" points="352,-742 348.5,-732 345,-742 352,-742"/>
</g>
<!-- node3 -->
<g id="node4" class="node">
<title>node3</title>
<polygon fill="lightcyan" stroke="transparent" points="174.5,-562 174.5,-583 408.5,-583 408.5,-562 174.5,-562"/>
<polygon fill="none" stroke="black" points="174.5,-562 174.5,-583 408.5,-583 408.5,-562 174.5,-562"/>
<text text-anchor="start" x="177.5" y="-568.8" font-family="Times,serif" font-size="14.00"> Valid_SampledTaps_TDL&lt;= &#39;0&#39; </text>
</g>
<!-- node2&#45;&gt;node3 -->
<g id="edge3" class="edge">
<title>node2:s&#45;&gt;node3</title>
<path fill="none" stroke="red" d="M348.5,-696C348.5,-685.3 338.1,-687.12 332.5,-678 317.41,-653.45 306.03,-622.39 299.14,-600.63"/>
<polygon fill="red" stroke="red" points="302.48,-599.59 296.2,-591.06 295.79,-601.64 302.48,-599.59"/>
<text text-anchor="middle" x="345" y="-666.8" font-family="Times,serif" font-size="14.00">yes</text>
</g>
<!-- node4 -->
<g id="node5" class="node">
<title>node4</title>
<polygon fill="#c1b2ff" stroke="#c1b2ff" points="579.5,-645 369.86,-627 579.5,-609 789.14,-627 579.5,-645"/>
<text text-anchor="middle" x="579.5" y="-623.3" font-family="Times,serif" font-size="14.00"> elsif &#160;&#160;&#160;rising_edge(clk &#160;) then</text>
</g>
<!-- node2&#45;&gt;node4 -->
<g id="edge4" class="edge">
<title>node2:s&#45;&gt;node4</title>
<path fill="none" stroke="black" d="M348.5,-696C348.5,-666.54 418.54,-648.9 481.48,-639"/>
<polygon fill="black" stroke="black" points="482.15,-642.44 491.51,-637.48 481.1,-635.52 482.15,-642.44"/>
<text text-anchor="middle" x="391.5" y="-666.8" font-family="Times,serif" font-size="14.00">no</text>
</g>
<!-- node10 -->
<g id="node9" class="node">
<title>node10</title>
<polygon fill="#c1b2ff" stroke="#c1b2ff" points="793.5,-304 516.67,-286 793.5,-268 1070.33,-286 793.5,-304"/>
<text text-anchor="middle" x="793.5" y="-282.3" font-family="Times,serif" font-size="14.00"> if &#160;&#160;&#160;BUFFERING_STAGE= &#160;&#160;TRUE then</text>
</g>
<!-- node3&#45;&gt;node10 -->
<g id="edge5" class="edge">
<title>node3&#45;&gt;node10:n</title>
<path fill="none" stroke="green" d="M288.02,-554.87C283.2,-527.13 276.81,-471.14 293.5,-428 312.13,-379.84 323.88,-363.2 370.5,-341 412.97,-320.78 764.15,-359.77 793.5,-323"/>
<path fill="none" stroke="green" d="M793.5,-322C795.8,-319.11 795.98,-316.76 795.5,-314.28"/>
<polygon fill="green" stroke="green" points="798.91,-313.48 793.5,-304.37 792.05,-314.87 798.91,-313.48"/>
</g>
<!-- node5 -->
<g id="node6" class="node">
<title>node5</title>
<polygon fill="lightcyan" stroke="transparent" points="489.5,-508 489.5,-529 670.5,-529 670.5,-508 489.5,-508"/>
<polygon fill="none" stroke="black" points="489.5,-508 489.5,-529 670.5,-529 670.5,-508 489.5,-508"/>
<text text-anchor="start" x="492.5" y="-514.8" font-family="Times,serif" font-size="14.00"> FallValid&lt;= &#160;&#160;RiseValid </text>
</g>
<!-- node4&#45;&gt;node5 -->
<g id="edge6" class="edge">
<title>node4&#45;&gt;node5</title>
<path fill="none" stroke="red" d="M579.5,-608.97C579.5,-592.38 579.5,-566.88 579.5,-547.43"/>
<polygon fill="red" stroke="red" points="583,-547.34 579.5,-537.34 576,-547.34 583,-547.34"/>
<text text-anchor="middle" x="592" y="-569.3" font-family="Times,serif" font-size="14.00">yes</text>
</g>
<!-- node4&#45;&gt;node10 -->
<g id="edge7" class="edge">
<title>node4&#45;&gt;node10:n</title>
<path fill="none" stroke="black" d="M632.17,-613.52C700.03,-594.3 815.21,-550.28 865.5,-464 873.56,-450.18 870.24,-443.28 865.5,-428 865.37,-427.58 793.22,-323.35 793.5,-323"/>
<text text-anchor="middle" x="878.5" y="-442.3" font-family="Times,serif" font-size="14.00">no</text>
</g>
<!-- node6 -->
<g id="node7" class="node">
<title>node6</title>
<polygon fill="#c1b2ff" stroke="#c1b2ff" points="579.5,-464 302.67,-446 579.5,-428 856.33,-446 579.5,-464"/>
<text text-anchor="middle" x="579.5" y="-442.3" font-family="Times,serif" font-size="14.00"> if &#160;&#160;&#160;BUFFERING_STAGE= &#160;&#160;TRUE then</text>
</g>
<!-- node5&#45;&gt;node6 -->
<g id="edge8" class="edge">
<title>node5&#45;&gt;node6:n</title>
<path fill="none" stroke="green" d="M579.5,-500.98C579.5,-493.17 579.5,-483.56 579.5,-474.11"/>
<polygon fill="green" stroke="green" points="583,-474 579.5,-464 576,-474 583,-474"/>
</g>
<!-- node7 -->
<g id="node8" class="node">
<title>node7</title>
<polygon fill="lightcyan" stroke="transparent" points="386.5,-348 386.5,-369 751.5,-369 751.5,-348 386.5,-348"/>
<polygon fill="none" stroke="black" points="386.5,-348 386.5,-369 751.5,-369 751.5,-348 386.5,-348"/>
<text text-anchor="start" x="389.5" y="-354.8" font-family="Times,serif" font-size="14.00"> Valid_SampledTaps_pipe&lt;= &#160;&#160;Valid_SampledTaps </text>
</g>
<!-- node6&#45;&gt;node7 -->
<g id="edge9" class="edge">
<title>node6:s&#45;&gt;node7</title>
<path fill="none" stroke="red" d="M579.5,-428C579.5,-414.5 577.36,-399.67 574.97,-387.32"/>
<polygon fill="red" stroke="red" points="578.32,-386.27 572.85,-377.2 571.47,-387.71 578.32,-386.27"/>
<text text-anchor="middle" x="590" y="-398.8" font-family="Times,serif" font-size="14.00">yes</text>
</g>
<!-- node6&#45;&gt;node10 -->
<g id="edge10" class="edge">
<title>node6:s&#45;&gt;node10:n</title>
<path fill="none" stroke="black" d="M579.5,-428C579.5,-406.36 750.86,-390.84 767.5,-377 787.98,-359.97 776.92,-343.85 793.5,-323"/>
<text text-anchor="middle" x="792.5" y="-355.3" font-family="Times,serif" font-size="14.00">no</text>
</g>
<!-- node7&#45;&gt;node10 -->
<g id="edge11" class="edge">
<title>node7&#45;&gt;node10:n</title>
<path fill="none" stroke="green" d="M758.2,-341.79C774.52,-337.02 787.23,-330.89 793.5,-323"/>
</g>
<!-- node11 -->
<g id="node10" class="node">
<title>node11</title>
<polygon fill="lightcyan" stroke="transparent" points="569.5,-134 569.5,-155 970.5,-155 970.5,-134 569.5,-134"/>
<polygon fill="none" stroke="black" points="569.5,-134 569.5,-155 970.5,-155 970.5,-134 569.5,-134"/>
<text text-anchor="start" x="572.5" y="-140.8" font-family="Times,serif" font-size="14.00"> Valid_SampledTaps_TDL&lt;= &#160;&#160;Valid_SampledTaps_pipe </text>
</g>
<!-- node10&#45;&gt;node11 -->
<g id="edge12" class="edge">
<title>node10:s&#45;&gt;node11</title>
<path fill="none" stroke="red" d="M793.5,-268C793.5,-255.71 777.8,-261.09 772.5,-250 760.99,-225.91 761.78,-194.96 764.49,-173.11"/>
<polygon fill="red" stroke="red" points="767.96,-173.59 765.93,-163.19 761.03,-172.58 767.96,-173.59"/>
<text text-anchor="middle" x="785" y="-238.8" font-family="Times,serif" font-size="14.00">yes</text>
</g>
<!-- node12 -->
<g id="node11" class="node">
<title>node12</title>
<polygon fill="#c1b2ff" stroke="#c1b2ff" points="1097.5,-217 797.71,-199 1097.5,-181 1397.29,-199 1097.5,-217"/>
<text text-anchor="middle" x="1097.5" y="-195.3" font-family="Times,serif" font-size="14.00"> elsif &#160;&#160;&#160;BUFFERING_STAGE= &#160;&#160;FALSE then</text>
</g>
<!-- node10&#45;&gt;node12 -->
<g id="edge13" class="edge">
<title>node10:s&#45;&gt;node12</title>
<path fill="none" stroke="black" d="M793.5,-268C793.5,-234.81 863.37,-217.82 936.11,-209.12"/>
<polygon fill="black" stroke="black" points="936.85,-212.56 946.39,-207.94 936.06,-205.6 936.85,-212.56"/>
<text text-anchor="middle" x="828.5" y="-238.8" font-family="Times,serif" font-size="14.00">no</text>
</g>
<!-- node16 -->
<g id="node13" class="node">
<title>node16</title>
<path fill="none" stroke="black" d="M1032.5,-36C1032.5,-36 940.5,-36 940.5,-36 934.5,-36 928.5,-30 928.5,-24 928.5,-24 928.5,-12 928.5,-12 928.5,-6 934.5,0 940.5,0 940.5,0 1032.5,0 1032.5,0 1038.5,0 1044.5,-6 1044.5,-12 1044.5,-12 1044.5,-24 1044.5,-24 1044.5,-30 1038.5,-36 1032.5,-36"/>
<polygon fill="white" stroke="transparent" points="936.5,-10 936.5,-25 1036.5,-25 1036.5,-10 936.5,-10"/>
<text text-anchor="start" x="936.5" y="-13.8" font-family="Times,serif" font-size="14.00"> end process &#160;</text>
</g>
<!-- node11&#45;&gt;node16 -->
<g id="edge14" class="edge">
<title>node11&#45;&gt;node16</title>
<path fill="none" stroke="green" d="M768.93,-126.77C769.41,-110.29 772.98,-86.07 788.5,-73 805.4,-58.77 987.31,-77.08 986.5,-55"/>
<path fill="none" stroke="green" d="M986.5,-54C986.29,-51.46 986.15,-48.81 986.06,-46.15"/>
<polygon fill="green" stroke="green" points="989.56,-46.07 985.94,-36.11 982.56,-46.15 989.56,-46.07"/>
</g>
<!-- node13 -->
<g id="node12" class="node">
<title>node13</title>
<polygon fill="lightcyan" stroke="transparent" points="804.5,-80 804.5,-101 1168.5,-101 1168.5,-80 804.5,-80"/>
<polygon fill="none" stroke="black" points="804.5,-80 804.5,-101 1168.5,-101 1168.5,-80 804.5,-80"/>
<text text-anchor="start" x="807.5" y="-86.8" font-family="Times,serif" font-size="14.00"> Valid_SampledTaps_TDL&lt;= &#160;&#160;Valid_SampledTaps </text>
</g>
<!-- node12&#45;&gt;node13 -->
<g id="edge15" class="edge">
<title>node12&#45;&gt;node13</title>
<path fill="none" stroke="red" d="M1080.64,-181.9C1062.38,-164.47 1033.05,-136.46 1011.98,-116.33"/>
<polygon fill="red" stroke="red" points="1014.27,-113.68 1004.63,-109.31 1009.44,-118.75 1014.27,-113.68"/>
<text text-anchor="middle" x="1070" y="-141.3" font-family="Times,serif" font-size="14.00">yes</text>
</g>
<!-- node12&#45;&gt;node16 -->
<g id="edge16" class="edge">
<title>node12&#45;&gt;node16</title>
<path fill="none" stroke="black" d="M1122.06,-182.42C1158.01,-157.78 1217.31,-108.92 1184.5,-73 1154.71,-40.38 990.1,-99.03 986.5,-55"/>
<text text-anchor="middle" x="1202.5" y="-87.3" font-family="Times,serif" font-size="14.00">no</text>
</g>
<!-- node13&#45;&gt;node16 -->
<g id="edge17" class="edge">
<title>node13&#45;&gt;node16</title>
<path fill="none" stroke="green" d="M986.75,-72.91C986.77,-67.21 986.71,-60.83 986.5,-55"/>
</g>
</g>
</svg>
